<?xml version="1.0" standalone="no"?>
<!DOCTYPE svg PUBLIC "-//W3C//DTD SVG 20010904//EN"
 "http://www.w3.org/TR/2001/REC-SVG-20010904/DTD/svg10.dtd">
<svg version="1.0" xmlns="http://www.w3.org/2000/svg"
 width="455.000000pt" height="210.000000pt" viewBox="0 0 455.000000 210.000000"
 preserveAspectRatio="xMidYMid meet">

<g transform="translate(0.000000,210.000000) scale(0.100000,-0.100000)"
fill="#000000" stroke="none">
<path d="M3794 1685 c-17 -26 -84 -234 -87 -270 -2 -32 -21 -43 -78 -51 -56
-7 -71 -17 -62 -41 4 -10 18 -12 54 -7 40 5 50 4 55 -10 3 -9 1 -22 -5 -30 -6
-7 -8 -16 -4 -19 3 -4 0 -13 -6 -21 -7 -8 -13 -28 -13 -45 -1 -17 -5 -31 -10
-31 -4 0 -8 -20 -8 -45 0 -25 -7 -62 -15 -82 -22 -53 -23 -239 -1 -282 21 -39
40 -42 25 -3 -6 15 -10 67 -10 117 1 83 4 96 40 170 21 44 56 131 77 194 l38
113 88 -4 c48 -2 82 -1 75 4 -6 4 -45 8 -84 8 -52 0 -73 4 -73 13 0 6 9 41 20
75 20 64 27 118 10 77 -4 -11 -16 -49 -26 -84 -13 -48 -20 -59 -25 -45 -7 17
-8 17 -8 2 -1 -19 -31 -25 -31 -7 0 25 81 269 91 275 7 4 9 0 6 -12 -3 -11 -8
-37 -11 -59 l-5 -40 14 40 15 40 -6 -45 c-4 -34 -2 -41 6 -28 5 9 12 37 15 63
7 85 -26 123 -61 70z m-38 -387 c-3 -15 -19 -57 -36 -94 -42 -94 -57 -74 -29
39 20 81 23 86 46 85 21 -2 24 -6 19 -30z"/>
<path d="M2192 1678 c-33 -41 -127 -309 -119 -340 3 -10 2 -16 -2 -13 -7 4
-17 -38 -41 -165 -5 -25 -9 -64 -9 -87 -1 -57 -68 -153 -106 -153 -8 0 17 86
35 119 16 30 19 32 20 14 0 -26 15 -30 24 -7 12 32 6 44 -23 44 -39 0 -76 -45
-90 -111 -14 -62 3 -99 44 -99 24 0 80 47 101 84 9 18 12 17 32 -16 39 -63 88
-70 167 -23 24 14 46 25 49 25 3 0 6 -15 6 -34 0 -35 21 -66 44 -66 14 0 52
26 116 78 36 30 41 32 47 15 23 -66 70 -69 151 -8 58 44 83 75 60 75 -6 0 -3
9 7 20 10 11 13 20 8 20 -11 0 -27 -29 -24 -43 1 -5 -3 -6 -9 -2 -14 9 -42
-14 -33 -28 3 -5 1 -7 -5 -3 -6 3 -27 -5 -48 -19 -20 -14 -48 -25 -62 -25 -23
0 -24 3 -19 35 8 50 -18 63 -59 29 -23 -20 -25 -23 -6 -14 13 7 26 9 29 7 2
-3 -5 -8 -16 -12 -12 -3 -21 -11 -21 -16 0 -6 -4 -8 -10 -4 -5 3 -31 -10 -58
-30 -50 -35 -72 -43 -72 -25 0 5 11 39 25 76 14 36 25 75 25 85 0 33 -20 31
-35 -5 -27 -63 -142 -133 -205 -124 -19 2 -29 13 -40 45 -14 41 -13 44 15 104
17 34 30 65 30 68 0 5 14 43 35 96 20 51 87 278 95 325 4 19 9 47 12 63 9 45
-38 77 -65 45z m25 -89 c-6 -4 -7 -16 -4 -28 3 -12 1 -19 -4 -15 -8 5 -13 -20
-13 -68 0 -9 -4 -14 -9 -11 -6 4 -8 -5 -5 -20 3 -15 2 -24 -2 -22 -4 3 -10 -4
-13 -15 -3 -11 0 -20 6 -20 8 0 7 -4 -2 -9 -7 -5 -10 -14 -7 -20 4 -6 2 -11
-4 -11 -7 0 -9 -7 -6 -16 3 -8 2 -13 -3 -9 -12 7 -35 -61 -25 -76 4 -8 3 -9
-4 -5 -11 6 -14 0 -11 -20 0 -4 -3 -10 -8 -13 -5 -3 -14 -17 -21 -31 -10 -22
-11 -18 -7 30 2 30 11 77 20 104 8 27 13 52 10 54 -3 3 -1 10 4 16 5 6 21 47
36 91 14 44 36 100 48 124 20 40 22 41 28 20 3 -13 1 -27 -4 -30z m-160 -441
c-3 -8 -6 -5 -6 6 -1 11 2 17 5 13 3 -3 4 -12 1 -19z"/>
<path d="M814 1600 c-345 -114 -454 -154 -447 -160 4 -5 43 -27 86 -50 l77
-42 0 -75 c0 -55 3 -74 13 -71 7 3 13 29 15 71 l3 66 44 -27 c29 -17 45 -34
45 -47 0 -11 3 -30 6 -42 l6 -23 234 0 233 0 3 57 3 56 127 71 c71 39 128 73
128 76 0 3 -119 40 -264 81 l-263 75 -49 -16z"/>
<path d="M3796 1514 c-4 -14 -5 -28 -3 -31 3 -2 8 8 11 23 4 14 5 28 3 31 -3
2 -8 -8 -11 -23z"/>
<path d="M2918 1429 c-45 -48 -63 -80 -36 -63 7 4 8 3 4 -5 -4 -6 -11 -9 -16
-6 -5 3 -19 -13 -30 -35 -17 -33 -19 -44 -9 -63 11 -19 10 -20 -2 -10 -12 10
-15 8 -14 -15 0 -15 -4 -30 -8 -33 -5 -4 -11 -25 -13 -48 -2 -23 -10 -48 -18
-56 -8 -8 -12 -24 -9 -35 3 -12 0 -20 -7 -20 -10 0 -10 -3 0 -16 11 -12 11
-15 0 -12 -11 2 -14 -10 -14 -49 0 -28 -4 -49 -8 -47 -4 3 -8 -2 -8 -11 0 -9
-3 -14 -7 -12 -14 9 -9 -176 5 -200 17 -30 63 -53 104 -53 27 0 43 11 90 61
32 33 58 66 57 72 0 9 -2 8 -6 0 -2 -7 -8 -13 -13 -13 -9 0 49 120 71 146 8
10 9 23 2 47 -9 28 -11 29 -17 12 -40 -114 -128 -252 -182 -286 -41 -25 -41
-25 -64 14 -53 86 13 430 113 600 45 73 116 157 135 157 6 0 17 -19 23 -42 7
-24 16 -47 20 -52 13 -14 31 34 24 65 -10 43 -31 59 -78 59 -36 0 -46 -6 -89
-51z m-61 -116 c-8 -16 -12 -35 -9 -43 3 -11 2 -12 -8 -4 -9 9 -8 19 4 43 9
17 19 31 22 31 2 0 -2 -12 -9 -27z"/>
<path d="M3868 1363 c23 -2 59 -2 80 0 20 2 1 4 -43 4 -44 0 -61 -2 -37 -4z"/>
<path d="M4018 1353 c7 -3 16 -2 19 1 4 3 -2 6 -13 5 -11 0 -14 -3 -6 -6z"/>
<path d="M650 1160 c-20 -38 -23 -105 -6 -165 13 -43 29 -69 66 -105 129 -130
339 -92 420 75 22 45 27 145 10 189 l-10 26 -234 0 c-223 0 -236 -1 -246 -20z"/>
<path d="M531 1082 c-9 -162 -8 -176 11 -180 30 -6 36 35 25 156 -12 138 -30
150 -36 24z"/>
<path d="M1695 1088 c-70 -61 -97 -156 -55 -198 11 -11 28 -20 38 -20 27 1
104 39 98 49 -3 5 8 14 24 21 16 7 35 18 41 26 6 8 -17 1 -52 -16 -109 -50
-157 -49 -143 3 5 21 12 27 32 27 30 0 79 31 106 67 15 20 16 29 7 49 -15 34
-53 31 -96 -8z m54 -14 c-13 -14 -33 -30 -44 -36 -11 -5 -3 7 17 26 43 41 63
49 27 10z"/>
<path d="M3165 1088 c-70 -61 -97 -156 -55 -198 11 -11 28 -20 38 -20 27 1
104 39 98 49 -3 5 8 14 24 21 16 7 35 18 41 26 6 8 -17 1 -52 -16 -109 -50
-157 -49 -143 3 5 21 12 27 35 27 17 0 42 12 64 31 48 42 59 64 45 89 -16 29
-54 25 -95 -12z m54 -14 c-13 -14 -32 -30 -43 -36 -18 -10 -18 -9 0 15 16 22
46 44 63 46 3 1 -6 -11 -20 -25z"/>
<path d="M3816 1086 c-46 -42 -80 -117 -71 -155 14 -66 82 -78 139 -26 15 14
41 32 57 41 56 28 24 24 -50 -7 -89 -37 -116 -36 -116 6 0 27 4 30 33 33 38 4
112 70 112 100 0 51 -55 55 -104 8z m49 -22 c-43 -34 -56 -29 -17 7 19 17 37
27 40 24 4 -4 -6 -18 -23 -31z"/>
<path d="M4196 1095 c-10 -8 -23 -12 -28 -9 -5 3 -7 0 -6 -7 2 -6 -3 -14 -11
-17 -9 -3 -11 0 -6 9 5 8 -3 3 -18 -10 -14 -13 -23 -29 -21 -36 5 -13 -11 -28
-33 -31 -8 -2 -13 10 -13 32 0 23 -5 34 -14 34 -10 0 -20 -24 -30 -69 -20 -86
-20 -112 -2 -136 12 -16 16 -17 30 -6 9 7 16 19 16 26 0 14 72 128 98 154 9
10 34 29 55 43 30 20 34 27 22 32 -20 7 -16 8 -39 -9z m-56 -39 c0 -2 -8 -10
-17 -17 -16 -13 -17 -12 -4 4 13 16 21 21 21 13z"/>
<path d="M3469 1083 c-13 -15 -12 -15 10 -3 l24 12 -21 -29 c-12 -16 -29 -36
-38 -44 -16 -12 -17 -12 -11 5 7 17 6 17 -10 5 -15 -12 -16 -12 -10 4 8 22
-21 36 -34 16 -17 -27 -40 -121 -34 -140 14 -42 40 -20 115 94 25 37 49 67 54
67 4 0 5 -25 1 -55 -6 -55 -1 -95 14 -95 5 0 11 33 15 73 6 66 5 73 -15 90
-27 21 -43 22 -60 0z"/>
<path d="M513 748 c-31 -35 -43 -83 -43 -179 l0 -89 426 0 427 0 -5 98 c-5
102 -29 173 -63 186 -9 3 -175 6 -369 6 l-353 0 -20 -22z"/>
<path d="M1655 520 c-3 -5 -1 -10 4 -10 6 0 11 5 11 10 0 6 -2 10 -4 10 -3 0
-8 -4 -11 -10z"/>
<path d="M1780 518 c0 -4 7 -8 15 -8 8 0 15 4 15 8 0 5 -7 9 -15 9 -8 0 -15
-4 -15 -9z"/>
<path d="M1622 443 c2 -47 6 -58 22 -61 23 -5 36 14 36 55 0 47 -9 63 -37 63
-23 0 -24 -2 -21 -57z m38 -3 c0 -21 -4 -42 -10 -45 -6 -4 -10 13 -10 45 0 32
4 49 10 45 6 -3 10 -24 10 -45z"/>
<path d="M1772 443 c3 -50 6 -58 24 -61 16 -2 23 4 28 23 7 27 1 45 -15 45 -5
0 -7 -11 -3 -24 3 -13 1 -27 -5 -30 -7 -5 -11 10 -11 46 1 49 2 51 15 34 15
-19 15 -19 15 2 0 17 -6 22 -25 22 -25 0 -26 -2 -23 -57z"/>
<path d="M1920 441 c0 -34 4 -61 10 -61 6 0 10 11 10 25 0 14 5 25 10 25 6 0
10 -11 10 -25 0 -14 4 -25 10 -25 5 0 8 26 7 58 -2 54 -3 57 -29 60 -28 3 -28
3 -28 -57z m40 23 c0 -8 -4 -14 -10 -14 -5 0 -10 9 -10 21 0 11 5 17 10 14 6
-3 10 -13 10 -21z"/>
<path d="M2070 440 l0 -60 31 0 c17 0 28 4 24 10 -3 6 -13 10 -21 10 -19 0
-18 20 4 36 16 13 16 13 0 14 -27 0 -23 38 5 43 16 3 13 5 -10 6 l-33 1 0 -60z"/>
<path d="M2220 440 c0 -61 19 -87 21 -27 l1 32 9 -32 c15 -52 29 -38 29 27 0
59 -14 82 -23 38 l-4 -23 -2 23 c0 12 -8 22 -16 22 -12 0 -15 -13 -15 -60z"/>
<path d="M2381 438 c2 -58 2 -60 9 -23 4 22 8 30 9 18 3 -59 31 -73 30 -15 0
29 -2 33 -9 17 -6 -16 -8 -12 -11 19 -2 22 -10 41 -16 44 -10 3 -13 -13 -12
-60z"/>
<path d="M2434 463 c3 -21 6 -48 6 -60 0 -13 5 -23 10 -23 6 0 10 27 10 60 0
49 -3 60 -16 60 -14 0 -15 -7 -10 -37z"/>
<path d="M2560 440 c0 -58 1 -60 26 -60 14 0 23 4 19 10 -3 6 -13 10 -21 10
-19 0 -18 20 4 36 16 13 16 13 0 14 -27 0 -23 38 5 43 19 4 18 4 -5 6 -28 1
-28 0 -28 -59z"/>
<path d="M2704 478 c3 -13 9 -40 12 -60 9 -50 20 -48 27 5 2 23 8 50 12 60 4
9 3 17 -3 17 -5 0 -13 -10 -17 -22 l-8 -23 -4 23 c-2 12 -9 22 -15 22 -6 0 -8
-10 -4 -22z"/>
<path d="M2850 440 c0 -33 4 -60 10 -60 6 0 10 27 10 60 0 33 -4 60 -10 60 -6
0 -10 -27 -10 -60z"/>
<path d="M3075 483 c4 -10 10 -37 12 -60 3 -24 9 -43 12 -43 8 0 33 112 26
118 -2 3 -9 -6 -13 -19 l-9 -24 -7 23 c-4 12 -12 22 -18 22 -6 0 -7 -7 -3 -17z"/>
<path d="M3224 487 c-3 -8 -4 -34 -2 -58 3 -39 6 -44 28 -44 24 0 25 3 25 55
0 49 -2 55 -23 58 -12 2 -24 -3 -28 -11z m36 -42 c0 -25 -4 -45 -10 -45 -5 0
-10 20 -10 45 0 25 5 45 10 45 6 0 10 -20 10 -45z"/>
<path d="M3382 438 c1 -57 2 -59 6 -18 l5 45 12 -39 c19 -63 35 -57 35 13 0
34 -4 61 -10 61 -5 0 -10 -12 -11 -27 l-1 -28 -10 28 c-16 46 -28 30 -26 -35z"/>
<path d="M3530 440 c0 -57 1 -60 25 -60 14 0 25 5 25 10 0 6 -7 10 -15 10 -8
0 -15 7 -15 15 0 8 7 15 15 15 8 0 15 5 15 10 0 6 -7 10 -15 10 -21 0 -19 38
3 43 10 3 6 5 -10 6 -28 1 -28 0 -28 -59z"/>
<path d="M3678 493 c7 -3 12 -25 12 -59 0 -30 5 -54 10 -54 6 0 10 24 10 54 0
34 5 56 13 59 6 3 -4 5 -23 5 -19 0 -29 -2 -22 -5z"/>
</g>
</svg>
